<?xml version="1.0" standalone="yes"?>
<svg xmlns="http://www.w3.org/2000/svg" width="128" height="128">
<path style="fill:#ffffff; stroke:none;" d="M0 0L0 128L128 128L128 0L0 0z"/>
<path style="fill:#000000; stroke:none;" d="M121 15C111.646 24.9454 102.832 29.9908 89 30C88.3396 43.0636 78.4984 44 68 44C69.2461 40.6942 70.6291 37.623 73 35C72.3316 32.5304 71.9158 30.5489 72 28C67.9826 27.0435 64.1134 27.0005 60 27C61.7305 29.7642 63.7647 31.5239 67 32C66.4086 35.4235 65.3991 40.0659 62.4429 42.3071C60.3213 43.9155 57.4522 43.0654 55 43.2083C45.7136 43.7496 39.1582 41.664 38 31C34.3516 31.9955 30.8192 33.6739 27 33.892C17.9545 34.4085 9.4283 29.4717 2 25C4.03499 33.8981 7.45073 38.5234 5 48C14.5129 46.235 19.2156 49.4131 25 57C33.0791 55.0997 37.2576 58.7584 43 64C43.981 61.9944 44.8763 59.8891 46.1343 58.0355C47.9015 55.4315 52.0698 50.7128 55.4861 53.5424C58.9349 56.3989 57.2763 61.2891 57.2739 65C57.269 72.613 59.7638 77.1094 50 79C50.4971 82.0661 51.0359 83.0317 54 84C56.275 80.8441 58.5455 78.7952 62 77L62 71C64.4185 76.6701 61.3084 79.4041 57 83C59.0126 85.3247 59.9298 85.8986 63 86C63.1973 81.8059 65.2997 79.1008 68 76C67.5279 74.5838 67.1863 74.1863 66 73C71.5606 74.0827 76.9802 75.3954 79.6782 81.0039C82.4394 86.7437 78.7023 94.9797 72 94C72.017 99.3144 65.9718 104.602 67.8356 109.852C69.4075 114.279 75.0574 112.859 77.2577 109.852C79.7248 106.48 78.0207 102.622 79.2978 99C80.9895 94.2025 84.7689 91.4877 84.9421 86C85.1172 80.4559 82.8272 74.2344 78.787 70.3758C74.8118 66.5792 69.8937 64.7448 68.2438 58.9969C66.8146 54.0177 70.2066 50.9357 74.9992 53.3225C79.4684 55.5483 82.2796 60.0175 85 64C92.2554 55.3838 98.2212 49.7071 110 54C110.514 44.1124 117.597 39.4307 127 39C124.367 35.5078 120.975 32.5249 120.225 28C119.486 23.5387 121.892 19.2313 121 15z"/>
<path style="fill:#ffffff; stroke:none;" d="M69 109C75.7516 111.504 78.2841 106.003 77 100C72.8137 101.97 70.4901 104.62 69 109z"/>
</svg>
